<?xml version="1.0" encoding="utf-8"?>
<!-- Generator: Adobe Illustrator 16.0.0, SVG Export Plug-In . SVG Version: 6.00 Build 0)  -->
<!DOCTYPE svg PUBLIC "-//W3C//DTD SVG 1.1//EN" "http://www.w3.org/Graphics/SVG/1.1/DTD/svg11.dtd">
<svg version="1.1" id="Layer_1" xmlns="http://www.w3.org/2000/svg" xmlns:xlink="http://www.w3.org/1999/xlink" x="0px" y="0px"
	 width="120px" height="120px" viewBox="0 0 120 120" enable-background="new 0 0 120 120" xml:space="preserve">
<g>
	<path fill="#B0B0AF" d="M120,108c0,6.6-5.4,12-12,12H12c-6.6,0-12-5.4-12-12V12C0,5.4,5.4,0,12,0h96c6.6,0,12,5.4,12,12V108z"/>
</g>
<g>
	<path fill="#FFFFFF" d="M48.111,69.962c0,0.826-0.278,1.466-0.836,1.919c-0.558,0.455-1.146,0.682-1.766,0.682
		c-0.373,0-0.703-0.061-0.991-0.187l-22.371-9.97c-0.704-0.33-1.271-0.836-1.705-1.518c-0.434-0.681-0.651-1.433-0.651-2.26
		c0-0.743,0.217-1.444,0.651-2.105c0.433-0.66,1.001-1.155,1.705-1.485l22.371-10.033c0.288-0.124,0.619-0.185,0.991-0.185
		c0.659,0,1.259,0.237,1.796,0.712c0.537,0.475,0.806,1.125,0.806,1.951c0,0.495-0.134,0.971-0.403,1.423
		c-0.269,0.455-0.65,0.786-1.146,0.992l-20.758,8.855l20.758,8.793c0.497,0.206,0.877,0.525,1.146,0.961
		C47.977,68.939,48.111,69.425,48.111,69.962z"/>
	<path fill="#FFFFFF" d="M69.057,39.186c0,0.207-0.041,0.475-0.121,0.806l-13.08,39.195c-0.206,0.578-0.557,1.031-1.052,1.363
		c-0.496,0.327-1.034,0.492-1.611,0.492c-0.786,0-1.437-0.258-1.953-0.773c-0.517-0.517-0.776-1.123-0.776-1.824
		c0-0.248,0.063-0.538,0.186-0.869L63.729,38.38c0.205-0.577,0.547-1.031,1.022-1.362c0.474-0.331,1.021-0.496,1.644-0.496
		c0.781,0,1.424,0.27,1.918,0.806C68.809,37.866,69.057,38.483,69.057,39.186z"/>
	<path fill="#FFFFFF" d="M99.792,58.629c0,0.827-0.216,1.58-0.649,2.26c-0.433,0.68-1.002,1.188-1.703,1.518l-22.371,9.97
		c-0.33,0.126-0.661,0.187-0.99,0.187c-0.662,0-1.26-0.237-1.797-0.713c-0.539-0.473-0.807-1.103-0.807-1.888
		c0-0.537,0.135-1.021,0.402-1.454c0.268-0.436,0.65-0.755,1.145-0.961l20.761-8.793l-20.761-8.855
		c-0.535-0.206-0.938-0.537-1.205-0.992c-0.271-0.453-0.403-0.928-0.403-1.423c-0.041-0.825,0.217-1.476,0.776-1.951
		c0.555-0.475,1.184-0.712,1.889-0.712c0.329,0,0.66,0.062,0.99,0.185l22.371,10.033c0.701,0.33,1.271,0.826,1.703,1.485
		C99.576,57.186,99.792,57.886,99.792,58.629z"/>
</g>
</svg>